<mxfile host="Electron" modified="2024-11-18T09:40:09.489Z" agent="Mozilla/5.0 (Macintosh; Intel Mac OS X 10_13_6) AppleWebKit/537.36 (KHTML, like Gecko) draw.io/22.1.11 Chrome/114.0.5735.289 Electron/25.9.8 Safari/537.36" etag="7j-8THebqcnQon3HRNsD" version="22.1.11" type="device">
  <diagram name="Страница — 1" id="s04NQ5FAuffwA7Ac-LMz">
    <mxGraphModel dx="1273" dy="974" grid="1" gridSize="10" guides="1" tooltips="1" connect="1" arrows="1" fold="1" page="1" pageScale="1" pageWidth="827" pageHeight="1169" math="0" shadow="0">
      <root>
        <mxCell id="0" />
        <mxCell id="1" parent="0" />
        <mxCell id="Q1ugnNy5xDqH6ucsRMTy-70" style="edgeStyle=orthogonalEdgeStyle;rounded=0;orthogonalLoop=1;jettySize=auto;html=1;entryX=0.5;entryY=0;entryDx=0;entryDy=0;curved=1;" edge="1" parent="1" source="Q1ugnNy5xDqH6ucsRMTy-1" target="Q1ugnNy5xDqH6ucsRMTy-36">
          <mxGeometry relative="1" as="geometry" />
        </mxCell>
        <mxCell id="Q1ugnNy5xDqH6ucsRMTy-77" style="edgeStyle=orthogonalEdgeStyle;curved=1;rounded=0;orthogonalLoop=1;jettySize=auto;html=1;entryX=0.5;entryY=0;entryDx=0;entryDy=0;" edge="1" parent="1" source="Q1ugnNy5xDqH6ucsRMTy-1" target="Q1ugnNy5xDqH6ucsRMTy-43">
          <mxGeometry relative="1" as="geometry" />
        </mxCell>
        <mxCell id="Q1ugnNy5xDqH6ucsRMTy-1" value="1" style="ellipse;whiteSpace=wrap;html=1;aspect=fixed;" vertex="1" parent="1">
          <mxGeometry x="140" y="50" width="20" height="20" as="geometry" />
        </mxCell>
        <mxCell id="Q1ugnNy5xDqH6ucsRMTy-34" value="2" style="ellipse;whiteSpace=wrap;html=1;aspect=fixed;" vertex="1" parent="1">
          <mxGeometry x="80" y="80" width="20" height="20" as="geometry" />
        </mxCell>
        <mxCell id="Q1ugnNy5xDqH6ucsRMTy-67" style="edgeStyle=orthogonalEdgeStyle;rounded=0;orthogonalLoop=1;jettySize=auto;html=1;curved=1;" edge="1" parent="1" source="Q1ugnNy5xDqH6ucsRMTy-35" target="Q1ugnNy5xDqH6ucsRMTy-1">
          <mxGeometry relative="1" as="geometry" />
        </mxCell>
        <mxCell id="Q1ugnNy5xDqH6ucsRMTy-68" style="edgeStyle=orthogonalEdgeStyle;rounded=0;orthogonalLoop=1;jettySize=auto;html=1;curved=1;" edge="1" parent="1" source="Q1ugnNy5xDqH6ucsRMTy-35" target="Q1ugnNy5xDqH6ucsRMTy-34">
          <mxGeometry relative="1" as="geometry" />
        </mxCell>
        <mxCell id="Q1ugnNy5xDqH6ucsRMTy-35" value="3" style="ellipse;whiteSpace=wrap;html=1;aspect=fixed;" vertex="1" parent="1">
          <mxGeometry x="80" y="120" width="20" height="20" as="geometry" />
        </mxCell>
        <mxCell id="Q1ugnNy5xDqH6ucsRMTy-36" value="4" style="ellipse;whiteSpace=wrap;html=1;aspect=fixed;" vertex="1" parent="1">
          <mxGeometry x="230" y="130" width="20" height="20" as="geometry" />
        </mxCell>
        <mxCell id="Q1ugnNy5xDqH6ucsRMTy-74" style="edgeStyle=orthogonalEdgeStyle;curved=1;rounded=0;orthogonalLoop=1;jettySize=auto;html=1;entryX=0;entryY=0.5;entryDx=0;entryDy=0;" edge="1" parent="1" source="Q1ugnNy5xDqH6ucsRMTy-37" target="Q1ugnNy5xDqH6ucsRMTy-40">
          <mxGeometry relative="1" as="geometry" />
        </mxCell>
        <mxCell id="Q1ugnNy5xDqH6ucsRMTy-78" style="edgeStyle=orthogonalEdgeStyle;curved=1;rounded=0;orthogonalLoop=1;jettySize=auto;html=1;" edge="1" parent="1" source="Q1ugnNy5xDqH6ucsRMTy-37" target="Q1ugnNy5xDqH6ucsRMTy-45">
          <mxGeometry relative="1" as="geometry" />
        </mxCell>
        <mxCell id="Q1ugnNy5xDqH6ucsRMTy-37" value="5" style="ellipse;whiteSpace=wrap;html=1;aspect=fixed;" vertex="1" parent="1">
          <mxGeometry x="370" y="50" width="20" height="20" as="geometry" />
        </mxCell>
        <mxCell id="Q1ugnNy5xDqH6ucsRMTy-38" value="6" style="ellipse;whiteSpace=wrap;html=1;aspect=fixed;" vertex="1" parent="1">
          <mxGeometry x="230" y="160" width="20" height="20" as="geometry" />
        </mxCell>
        <mxCell id="Q1ugnNy5xDqH6ucsRMTy-39" value="7" style="ellipse;whiteSpace=wrap;html=1;aspect=fixed;" vertex="1" parent="1">
          <mxGeometry x="320" y="100" width="20" height="20" as="geometry" />
        </mxCell>
        <mxCell id="Q1ugnNy5xDqH6ucsRMTy-71" style="edgeStyle=orthogonalEdgeStyle;curved=1;rounded=0;orthogonalLoop=1;jettySize=auto;html=1;" edge="1" parent="1" source="Q1ugnNy5xDqH6ucsRMTy-40" target="Q1ugnNy5xDqH6ucsRMTy-37">
          <mxGeometry relative="1" as="geometry" />
        </mxCell>
        <mxCell id="Q1ugnNy5xDqH6ucsRMTy-73" style="edgeStyle=orthogonalEdgeStyle;curved=1;rounded=0;orthogonalLoop=1;jettySize=auto;html=1;" edge="1" parent="1" source="Q1ugnNy5xDqH6ucsRMTy-40" target="Q1ugnNy5xDqH6ucsRMTy-39">
          <mxGeometry relative="1" as="geometry" />
        </mxCell>
        <mxCell id="Q1ugnNy5xDqH6ucsRMTy-40" value="8" style="ellipse;whiteSpace=wrap;html=1;aspect=fixed;" vertex="1" parent="1">
          <mxGeometry x="320" y="160" width="20" height="20" as="geometry" />
        </mxCell>
        <mxCell id="Q1ugnNy5xDqH6ucsRMTy-41" value="9" style="ellipse;whiteSpace=wrap;html=1;aspect=fixed;" vertex="1" parent="1">
          <mxGeometry x="110" y="240" width="20" height="20" as="geometry" />
        </mxCell>
        <mxCell id="Q1ugnNy5xDqH6ucsRMTy-75" style="edgeStyle=orthogonalEdgeStyle;curved=1;rounded=0;orthogonalLoop=1;jettySize=auto;html=1;" edge="1" parent="1" source="Q1ugnNy5xDqH6ucsRMTy-42" target="Q1ugnNy5xDqH6ucsRMTy-41">
          <mxGeometry relative="1" as="geometry" />
        </mxCell>
        <mxCell id="Q1ugnNy5xDqH6ucsRMTy-42" value="10" style="ellipse;whiteSpace=wrap;html=1;aspect=fixed;" vertex="1" parent="1">
          <mxGeometry x="110" y="280" width="20" height="20" as="geometry" />
        </mxCell>
        <mxCell id="Q1ugnNy5xDqH6ucsRMTy-69" style="edgeStyle=orthogonalEdgeStyle;rounded=0;orthogonalLoop=1;jettySize=auto;html=1;curved=1;" edge="1" parent="1" source="Q1ugnNy5xDqH6ucsRMTy-43" target="Q1ugnNy5xDqH6ucsRMTy-35">
          <mxGeometry relative="1" as="geometry" />
        </mxCell>
        <mxCell id="Q1ugnNy5xDqH6ucsRMTy-72" style="edgeStyle=orthogonalEdgeStyle;curved=1;rounded=0;orthogonalLoop=1;jettySize=auto;html=1;" edge="1" parent="1" source="Q1ugnNy5xDqH6ucsRMTy-43" target="Q1ugnNy5xDqH6ucsRMTy-38">
          <mxGeometry relative="1" as="geometry" />
        </mxCell>
        <mxCell id="Q1ugnNy5xDqH6ucsRMTy-43" value="11" style="ellipse;whiteSpace=wrap;html=1;aspect=fixed;" vertex="1" parent="1">
          <mxGeometry x="170" y="190" width="20" height="20" as="geometry" />
        </mxCell>
        <mxCell id="Q1ugnNy5xDqH6ucsRMTy-45" value="12" style="ellipse;whiteSpace=wrap;html=1;aspect=fixed;" vertex="1" parent="1">
          <mxGeometry x="430" y="190" width="20" height="20" as="geometry" />
        </mxCell>
        <mxCell id="Q1ugnNy5xDqH6ucsRMTy-46" value="13" style="ellipse;whiteSpace=wrap;html=1;aspect=fixed;" vertex="1" parent="1">
          <mxGeometry x="230" y="240" width="20" height="20" as="geometry" />
        </mxCell>
        <mxCell id="Q1ugnNy5xDqH6ucsRMTy-47" value="14" style="ellipse;whiteSpace=wrap;html=1;aspect=fixed;" vertex="1" parent="1">
          <mxGeometry x="250" y="260" width="20" height="20" as="geometry" />
        </mxCell>
        <mxCell id="Q1ugnNy5xDqH6ucsRMTy-49" value="15" style="ellipse;whiteSpace=wrap;html=1;aspect=fixed;" vertex="1" parent="1">
          <mxGeometry x="270" y="280" width="20" height="20" as="geometry" />
        </mxCell>
        <mxCell id="Q1ugnNy5xDqH6ucsRMTy-50" value="16" style="ellipse;whiteSpace=wrap;html=1;aspect=fixed;" vertex="1" parent="1">
          <mxGeometry x="280" y="290" width="20" height="20" as="geometry" />
        </mxCell>
        <mxCell id="Q1ugnNy5xDqH6ucsRMTy-51" value="17" style="ellipse;whiteSpace=wrap;html=1;aspect=fixed;" vertex="1" parent="1">
          <mxGeometry x="290" y="300" width="20" height="20" as="geometry" />
        </mxCell>
        <mxCell id="Q1ugnNy5xDqH6ucsRMTy-52" value="18" style="ellipse;whiteSpace=wrap;html=1;aspect=fixed;" vertex="1" parent="1">
          <mxGeometry x="300" y="310" width="20" height="20" as="geometry" />
        </mxCell>
        <mxCell id="Q1ugnNy5xDqH6ucsRMTy-53" value="19" style="ellipse;whiteSpace=wrap;html=1;aspect=fixed;" vertex="1" parent="1">
          <mxGeometry x="310" y="320" width="20" height="20" as="geometry" />
        </mxCell>
        <mxCell id="Q1ugnNy5xDqH6ucsRMTy-54" value="20" style="ellipse;whiteSpace=wrap;html=1;aspect=fixed;" vertex="1" parent="1">
          <mxGeometry x="320" y="330" width="20" height="20" as="geometry" />
        </mxCell>
        <mxCell id="Q1ugnNy5xDqH6ucsRMTy-55" value="21" style="ellipse;whiteSpace=wrap;html=1;aspect=fixed;" vertex="1" parent="1">
          <mxGeometry x="330" y="340" width="20" height="20" as="geometry" />
        </mxCell>
        <mxCell id="Q1ugnNy5xDqH6ucsRMTy-56" value="22" style="ellipse;whiteSpace=wrap;html=1;aspect=fixed;" vertex="1" parent="1">
          <mxGeometry x="340" y="350" width="20" height="20" as="geometry" />
        </mxCell>
        <mxCell id="Q1ugnNy5xDqH6ucsRMTy-57" value="23" style="ellipse;whiteSpace=wrap;html=1;aspect=fixed;" vertex="1" parent="1">
          <mxGeometry x="350" y="360" width="20" height="20" as="geometry" />
        </mxCell>
        <mxCell id="Q1ugnNy5xDqH6ucsRMTy-58" value="24" style="ellipse;whiteSpace=wrap;html=1;aspect=fixed;" vertex="1" parent="1">
          <mxGeometry x="360" y="370" width="20" height="20" as="geometry" />
        </mxCell>
        <mxCell id="Q1ugnNy5xDqH6ucsRMTy-59" value="25" style="ellipse;whiteSpace=wrap;html=1;aspect=fixed;" vertex="1" parent="1">
          <mxGeometry x="370" y="380" width="20" height="20" as="geometry" />
        </mxCell>
        <mxCell id="Q1ugnNy5xDqH6ucsRMTy-60" value="26" style="ellipse;whiteSpace=wrap;html=1;aspect=fixed;" vertex="1" parent="1">
          <mxGeometry x="380" y="390" width="20" height="20" as="geometry" />
        </mxCell>
        <mxCell id="Q1ugnNy5xDqH6ucsRMTy-61" value="27" style="ellipse;whiteSpace=wrap;html=1;aspect=fixed;" vertex="1" parent="1">
          <mxGeometry x="390" y="400" width="20" height="20" as="geometry" />
        </mxCell>
        <mxCell id="Q1ugnNy5xDqH6ucsRMTy-62" value="28" style="ellipse;whiteSpace=wrap;html=1;aspect=fixed;" vertex="1" parent="1">
          <mxGeometry x="400" y="410" width="20" height="20" as="geometry" />
        </mxCell>
        <mxCell id="Q1ugnNy5xDqH6ucsRMTy-63" value="29" style="ellipse;whiteSpace=wrap;html=1;aspect=fixed;" vertex="1" parent="1">
          <mxGeometry x="410" y="420" width="20" height="20" as="geometry" />
        </mxCell>
        <mxCell id="Q1ugnNy5xDqH6ucsRMTy-64" value="30" style="ellipse;whiteSpace=wrap;html=1;aspect=fixed;" vertex="1" parent="1">
          <mxGeometry x="420" y="430" width="20" height="20" as="geometry" />
        </mxCell>
        <mxCell id="Q1ugnNy5xDqH6ucsRMTy-65" value="31" style="ellipse;whiteSpace=wrap;html=1;aspect=fixed;" vertex="1" parent="1">
          <mxGeometry x="430" y="440" width="20" height="20" as="geometry" />
        </mxCell>
        <mxCell id="Q1ugnNy5xDqH6ucsRMTy-66" value="32" style="ellipse;whiteSpace=wrap;html=1;aspect=fixed;" vertex="1" parent="1">
          <mxGeometry x="440" y="450" width="20" height="20" as="geometry" />
        </mxCell>
        <mxCell id="Q1ugnNy5xDqH6ucsRMTy-76" style="edgeStyle=orthogonalEdgeStyle;curved=1;rounded=0;orthogonalLoop=1;jettySize=auto;html=1;" edge="1" parent="1" source="Q1ugnNy5xDqH6ucsRMTy-42" target="Q1ugnNy5xDqH6ucsRMTy-42">
          <mxGeometry relative="1" as="geometry" />
        </mxCell>
        <mxCell id="Q1ugnNy5xDqH6ucsRMTy-79" style="edgeStyle=orthogonalEdgeStyle;curved=1;rounded=0;orthogonalLoop=1;jettySize=auto;html=1;" edge="1" parent="1" source="Q1ugnNy5xDqH6ucsRMTy-46" target="Q1ugnNy5xDqH6ucsRMTy-46">
          <mxGeometry relative="1" as="geometry" />
        </mxCell>
        <mxCell id="Q1ugnNy5xDqH6ucsRMTy-80" style="edgeStyle=orthogonalEdgeStyle;curved=1;rounded=0;orthogonalLoop=1;jettySize=auto;html=1;" edge="1" parent="1" source="Q1ugnNy5xDqH6ucsRMTy-47" target="Q1ugnNy5xDqH6ucsRMTy-47">
          <mxGeometry relative="1" as="geometry" />
        </mxCell>
        <mxCell id="Q1ugnNy5xDqH6ucsRMTy-81" value="и т.д." style="text;html=1;strokeColor=none;fillColor=none;align=center;verticalAlign=middle;whiteSpace=wrap;rounded=0;" vertex="1" parent="1">
          <mxGeometry x="300" y="250" width="60" height="30" as="geometry" />
        </mxCell>
      </root>
    </mxGraphModel>
  </diagram>
</mxfile>
